<?xml version="1.0" encoding="UTF-8"?>
<svg width="312px" height="47px" viewBox="0 0 312 47" version="1.1" xmlns="http://www.w3.org/2000/svg" xmlns:xlink="http://www.w3.org/1999/xlink">
  <g fill="#FFB889" transform="translate(-280.000000, -480.000000)">
    <path d="M289.775,497.325 C288.574994,497.325 287.441672,497.120835 286.375,496.7125 C285.308328,496.304165 284.379171,495.720837 283.5875,494.9625 C282.795829,494.204163 282.170836,493.291672 281.7125,492.225 C281.254164,491.158328 281.025,489.975006 281.025,488.675 C281.025,487.374993 281.254164,486.191672 281.7125,485.125 C282.170836,484.058328 282.795829,483.150004 283.5875,482.4 C284.379171,481.649996 285.308328,481.070835 286.375,480.6625 C287.441672,480.254165 288.574994,480.05 289.775,480.05 C290.591671,480.05 291.337497,480.141666 292.0125,480.325 C292.687503,480.508334 293.299997,480.754165 293.85,481.0625 C294.400003,481.370835 294.895831,481.737498 295.3375,482.1625 C295.779169,482.587502 296.166665,483.041664 296.5,483.525 L294.1,484.875 C293.666665,484.241663 293.075004,483.712502 292.325,483.2875 C291.574996,482.862498 290.725005,482.65 289.775,482.65 C288.941663,482.65 288.175004,482.799998 287.475,483.1 C286.774996,483.400001 286.170836,483.816664 285.6625,484.35 C285.154164,484.883336 284.754168,485.52083 284.4625,486.2625 C284.170832,487.00417 284.025,487.808329 284.025,488.675 C284.025,489.558338 284.170832,490.366663 284.4625,491.1 C284.754168,491.833337 285.154164,492.470831 285.6625,493.0125 C286.170836,493.554169 286.774996,493.974998 287.475,494.275 C288.175004,494.575001 288.941663,494.725 289.775,494.725 C290.625004,494.725 291.399996,494.562502 292.1,494.2375 C292.800004,493.912498 293.341665,493.575002 293.725,493.225 L293.725,490.625 L288.75,490.625 L288.75,488.05 L296.65,488.05 L296.65,494.3 C295.816663,495.216671 294.829172,495.949997 293.6875,496.5 C292.545828,497.050003 291.241674,497.325 289.775,497.325 Z M301.545238,497 L301.545238,480.325 L312.970238,480.325 L312.970238,482.9 L304.470238,482.9 L304.470238,487.225 L312.795238,487.225 L312.795238,489.8 L304.470238,489.8 L304.470238,494.425 L312.970238,494.425 L312.970238,497 L301.545238,497 Z M325.590476,497.3 C324.34047,497.3 323.194648,497.083335 322.152976,496.65 C321.111304,496.216664 320.211313,495.61667 319.452976,494.85 C318.694639,494.083329 318.107145,493.175005 317.690476,492.125 C317.273807,491.074995 317.065476,489.925006 317.065476,488.675 C317.065476,487.424994 317.273807,486.275005 317.690476,485.225 C318.107145,484.174995 318.694639,483.26667 319.452976,482.5 C320.211313,481.733329 321.111304,481.133335 322.152976,480.7 C323.194648,480.266664 324.34047,480.05 325.590476,480.05 C326.840482,480.05 327.986304,480.266664 329.027976,480.7 C330.069648,481.133335 330.969639,481.733329 331.727976,482.5 C332.486313,483.26667 333.073807,484.174995 333.490476,485.225 C333.907145,486.275005 334.115476,487.424994 334.115476,488.675 C334.115476,489.925006 333.907145,491.074995 333.490476,492.125 C333.073807,493.175005 332.486313,494.083329 331.727976,494.85 C330.969639,495.61667 330.069648,496.216664 329.027976,496.65 C327.986304,497.083335 326.840482,497.3 325.590476,497.3 Z M325.590476,494.7 C326.423813,494.7 327.182139,494.545835 327.865476,494.2375 C328.548813,493.929165 329.13214,493.508336 329.615476,492.975 C330.098812,492.441664 330.469641,491.80417 330.727976,491.0625 C330.986311,490.32083 331.115476,489.525004 331.115476,488.675 C331.115476,487.808329 330.986311,487.008337 330.727976,486.275 C330.469641,485.541663 330.098812,484.908336 329.615476,484.375 C329.13214,483.841664 328.548813,483.420835 327.865476,483.1125 C327.182139,482.804165 326.423813,482.65 325.590476,482.65 C324.740472,482.65 323.977979,482.804165 323.302976,483.1125 C322.627973,483.420835 322.048812,483.841664 321.565476,484.375 C321.08214,484.908336 320.711311,485.541663 320.452976,486.275 C320.194641,487.008337 320.065476,487.808329 320.065476,488.675 C320.065476,489.525004 320.194641,490.32083 320.452976,491.0625 C320.711311,491.80417 321.08214,492.441664 321.565476,492.975 C322.048812,493.508336 322.627973,493.929165 323.302976,494.2375 C323.977979,494.545835 324.740472,494.7 325.590476,494.7 Z M348.310714,497 L344.610714,490.775 L341.710714,490.775 L341.710714,497 L338.785714,497 L338.785714,480.325 L346.110714,480.325 C346.927385,480.325 347.673211,480.454165 348.348214,480.7125 C349.023217,480.970835 349.598212,481.329164 350.073214,481.7875 C350.548216,482.245836 350.914879,482.79583 351.173214,483.4375 C351.431549,484.07917 351.560714,484.783329 351.560714,485.55 C351.560714,486.300004 351.448215,486.95833 351.223214,487.525 C350.998213,488.091669 350.702382,488.579165 350.335714,488.9875 C349.969045,489.395835 349.548216,489.720832 349.073214,489.9625 C348.598212,490.204168 348.110716,490.366666 347.610714,490.45 L351.685714,497 L348.310714,497 Z M345.710714,488.2 C346.544052,488.2 347.227378,487.958336 347.760714,487.475 C348.29405,486.991664 348.560714,486.350004 348.560714,485.55 C348.560714,484.749996 348.29405,484.108336 347.760714,483.625 C347.227378,483.141664 346.544052,482.9 345.710714,482.9 L341.710714,482.9 L341.710714,488.2 L345.710714,488.2 Z M364.330952,497.325 C363.130946,497.325 361.997624,497.120835 360.930952,496.7125 C359.86428,496.304165 358.935123,495.720837 358.143452,494.9625 C357.351781,494.204163 356.726788,493.291672 356.268452,492.225 C355.810116,491.158328 355.580952,489.975006 355.580952,488.675 C355.580952,487.374993 355.810116,486.191672 356.268452,485.125 C356.726788,484.058328 357.351781,483.150004 358.143452,482.4 C358.935123,481.649996 359.86428,481.070835 360.930952,480.6625 C361.997624,480.254165 363.130946,480.05 364.330952,480.05 C365.147623,480.05 365.893449,480.141666 366.568452,480.325 C367.243455,480.508334 367.855949,480.754165 368.405952,481.0625 C368.955955,481.370835 369.451783,481.737498 369.893452,482.1625 C370.335121,482.587502 370.722617,483.041664 371.055952,483.525 L368.655952,484.875 C368.222616,484.241663 367.630956,483.712502 366.880952,483.2875 C366.130948,482.862498 365.280957,482.65 364.330952,482.65 C363.497614,482.65 362.730955,482.799998 362.030952,483.1 C361.330948,483.400001 360.726788,483.816664 360.218452,484.35 C359.710116,484.883336 359.31012,485.52083 359.018452,486.2625 C358.726784,487.00417 358.580952,487.808329 358.580952,488.675 C358.580952,489.558338 358.726784,490.366663 359.018452,491.1 C359.31012,491.833337 359.710116,492.470831 360.218452,493.0125 C360.726788,493.554169 361.330948,493.974998 362.030952,494.275 C362.730955,494.575001 363.497614,494.725 364.330952,494.725 C365.180956,494.725 365.955948,494.562502 366.655952,494.2375 C367.355955,493.912498 367.897617,493.575002 368.280952,493.225 L368.280952,490.625 L363.305952,490.625 L363.305952,488.05 L371.205952,488.05 L371.205952,494.3 C370.372614,495.216671 369.385124,495.949997 368.243452,496.5 C367.10178,497.050003 365.797626,497.325 364.330952,497.325 Z M376.10119,497 L376.10119,480.325 L379.02619,480.325 L379.02619,497 L376.10119,497 Z M396.096428,497 L394.871428,493.8 L387.221428,493.8 L385.996428,497 L382.671428,497 L389.221428,480.325 L392.871428,480.325 L399.421428,497 L396.096428,497 Z M391.046428,483.275 L388.046428,491.225 L394.046428,491.225 L391.046428,483.275 Z M415.336904,497 L415.336904,482.9 L410.286904,482.9 L410.286904,480.325 L423.311904,480.325 L423.311904,482.9 L418.261904,482.9 L418.261904,497 L415.336904,497 Z M427.632142,497 L427.632142,480.325 L439.057142,480.325 L439.057142,482.9 L430.557142,482.9 L430.557142,487.225 L438.882142,487.225 L438.882142,489.8 L430.557142,489.8 L430.557142,494.425 L439.057142,494.425 L439.057142,497 L427.632142,497 Z M451.90238,497.3 C450.669041,497.3 449.519052,497.091669 448.45238,496.675 C447.385708,496.258331 446.460717,495.670837 445.67738,494.9125 C444.894043,494.154163 444.277382,493.245839 443.82738,492.1875 C443.377378,491.129161 443.15238,489.95834 443.15238,488.675 C443.15238,487.39166 443.377378,486.220839 443.82738,485.1625 C444.277382,484.104161 444.894043,483.195837 445.67738,482.4375 C446.460717,481.679163 447.385708,481.091669 448.45238,480.675 C449.519052,480.258331 450.669041,480.05 451.90238,480.05 C452.752384,480.05 453.519043,480.149999 454.20238,480.35 C454.885717,480.550001 455.502377,480.824998 456.05238,481.175 C456.602383,481.525002 457.085711,481.924998 457.50238,482.375 C457.919049,482.825002 458.285712,483.299997 458.60238,483.8 L456.10238,485.075 C455.702378,484.374996 455.127384,483.795836 454.37738,483.3375 C453.627376,482.879164 452.802385,482.65 451.90238,482.65 C451.069043,482.65 450.302384,482.799998 449.60238,483.1 C448.902377,483.400001 448.298216,483.816664 447.78988,484.35 C447.281544,484.883336 446.881548,485.52083 446.58988,486.2625 C446.298212,487.00417 446.15238,487.808329 446.15238,488.675 C446.15238,489.558338 446.298212,490.366663 446.58988,491.1 C446.881548,491.833337 447.281544,492.466664 447.78988,493 C448.298216,493.533336 448.902377,493.949998 449.60238,494.25 C450.302384,494.550001 451.069043,494.7 451.90238,494.7 C452.802385,494.7 453.627376,494.470836 454.37738,494.0125 C455.127384,493.554164 455.702378,492.975003 456.10238,492.275 L458.60238,493.55 C458.285712,494.050002 457.914882,494.524998 457.48988,494.975 C457.064878,495.425002 456.581549,495.824998 456.03988,496.175 C455.498211,496.525002 454.885717,496.799999 454.20238,497 C453.519043,497.200001 452.752384,497.3 451.90238,497.3 Z M474.397618,497 L474.397618,489.725 L465.722618,489.725 L465.722618,497 L462.797618,497 L462.797618,480.325 L465.722618,480.325 L465.722618,487.15 L474.397618,487.15 L474.397618,480.325 L477.322618,480.325 L477.322618,497 L474.397618,497 Z M494.342856,497 L485.642856,485.1 L485.642856,497 L482.717856,497 L482.717856,480.325 L485.717856,480.325 L494.242856,491.9 L494.242856,480.325 L497.167856,480.325 L497.167856,497 L494.342856,497 Z M510.338094,497.3 C509.088088,497.3 507.942266,497.083335 506.900594,496.65 C505.858922,496.216664 504.958931,495.61667 504.200594,494.85 C503.442257,494.083329 502.854763,493.175005 502.438094,492.125 C502.021425,491.074995 501.813094,489.925006 501.813094,488.675 C501.813094,487.424994 502.021425,486.275005 502.438094,485.225 C502.854763,484.174995 503.442257,483.26667 504.200594,482.5 C504.958931,481.733329 505.858922,481.133335 506.900594,480.7 C507.942266,480.266664 509.088088,480.05 510.338094,480.05 C511.5881,480.05 512.733922,480.266664 513.775594,480.7 C514.817266,481.133335 515.717257,481.733329 516.475594,482.5 C517.233931,483.26667 517.821425,484.174995 518.238094,485.225 C518.654763,486.275005 518.863094,487.424994 518.863094,488.675 C518.863094,489.925006 518.654763,491.074995 518.238094,492.125 C517.821425,493.175005 517.233931,494.083329 516.475594,494.85 C515.717257,495.61667 514.817266,496.216664 513.775594,496.65 C512.733922,497.083335 511.5881,497.3 510.338094,497.3 Z M510.338094,494.7 C511.171432,494.7 511.929757,494.545835 512.613094,494.2375 C513.296431,493.929165 513.879758,493.508336 514.363094,492.975 C514.84643,492.441664 515.217259,491.80417 515.475594,491.0625 C515.733929,490.32083 515.863094,489.525004 515.863094,488.675 C515.863094,487.808329 515.733929,487.008337 515.475594,486.275 C515.217259,485.541663 514.84643,484.908336 514.363094,484.375 C513.879758,483.841664 513.296431,483.420835 512.613094,483.1125 C511.929757,482.804165 511.171432,482.65 510.338094,482.65 C509.48809,482.65 508.725597,482.804165 508.050594,483.1125 C507.375591,483.420835 506.79643,483.841664 506.313094,484.375 C505.829758,484.908336 505.458929,485.541663 505.200594,486.275 C504.942259,487.008337 504.813094,487.808329 504.813094,488.675 C504.813094,489.525004 504.942259,490.32083 505.200594,491.0625 C505.458929,491.80417 505.829758,492.441664 506.313094,492.975 C506.79643,493.508336 507.375591,493.929165 508.050594,494.2375 C508.725597,494.545835 509.48809,494.7 510.338094,494.7 Z M523.533332,497 L523.533332,480.325 L526.458332,480.325 L526.458332,494.425 L533.808332,494.425 L533.808332,497 L523.533332,497 Z M545.32857,497.3 C544.078564,497.3 542.932742,497.083335 541.89107,496.65 C540.849398,496.216664 539.949407,495.61667 539.19107,494.85 C538.432733,494.083329 537.845239,493.175005 537.42857,492.125 C537.011901,491.074995 536.80357,489.925006 536.80357,488.675 C536.80357,487.424994 537.011901,486.275005 537.42857,485.225 C537.845239,484.174995 538.432733,483.26667 539.19107,482.5 C539.949407,481.733329 540.849398,481.133335 541.89107,480.7 C542.932742,480.266664 544.078564,480.05 545.32857,480.05 C546.578576,480.05 547.724398,480.266664 548.76607,480.7 C549.807742,481.133335 550.707733,481.733329 551.46607,482.5 C552.224407,483.26667 552.811901,484.174995 553.22857,485.225 C553.645239,486.275005 553.85357,487.424994 553.85357,488.675 C553.85357,489.925006 553.645239,491.074995 553.22857,492.125 C552.811901,493.175005 552.224407,494.083329 551.46607,494.85 C550.707733,495.61667 549.807742,496.216664 548.76607,496.65 C547.724398,497.083335 546.578576,497.3 545.32857,497.3 Z M545.32857,494.7 C546.161907,494.7 546.920233,494.545835 547.60357,494.2375 C548.286907,493.929165 548.870234,493.508336 549.35357,492.975 C549.836906,492.441664 550.207735,491.80417 550.46607,491.0625 C550.724405,490.32083 550.85357,489.525004 550.85357,488.675 C550.85357,487.808329 550.724405,487.008337 550.46607,486.275 C550.207735,485.541663 549.836906,484.908336 549.35357,484.375 C548.870234,483.841664 548.286907,483.420835 547.60357,483.1125 C546.920233,482.804165 546.161907,482.65 545.32857,482.65 C544.478566,482.65 543.716073,482.804165 543.04107,483.1125 C542.366067,483.420835 541.786906,483.841664 541.30357,484.375 C540.820234,484.908336 540.449405,485.541663 540.19107,486.275 C539.932735,487.008337 539.80357,487.808329 539.80357,488.675 C539.80357,489.525004 539.932735,490.32083 540.19107,491.0625 C540.449405,491.80417 540.820234,492.441664 541.30357,492.975 C541.786906,493.508336 542.366067,493.929165 543.04107,494.2375 C543.716073,494.545835 544.478566,494.7 545.32857,494.7 Z M566.523808,497.325 C565.323802,497.325 564.19048,497.120835 563.123808,496.7125 C562.057136,496.304165 561.127979,495.720837 560.336308,494.9625 C559.544637,494.204163 558.919644,493.291672 558.461308,492.225 C558.002972,491.158328 557.773808,489.975006 557.773808,488.675 C557.773808,487.374993 558.002972,486.191672 558.461308,485.125 C558.919644,484.058328 559.544637,483.150004 560.336308,482.4 C561.127979,481.649996 562.057136,481.070835 563.123808,480.6625 C564.19048,480.254165 565.323802,480.05 566.523808,480.05 C567.340479,480.05 568.086305,480.141666 568.761308,480.325 C569.436311,480.508334 570.048805,480.754165 570.598808,481.0625 C571.148811,481.370835 571.644639,481.737498 572.086308,482.1625 C572.527977,482.587502 572.915473,483.041664 573.248808,483.525 L570.848808,484.875 C570.415473,484.241663 569.823812,483.712502 569.073808,483.2875 C568.323804,482.862498 567.473813,482.65 566.523808,482.65 C565.69047,482.65 564.923812,482.799998 564.223808,483.1 C563.523804,483.400001 562.919644,483.816664 562.411308,484.35 C561.902972,484.883336 561.502976,485.52083 561.211308,486.2625 C560.91964,487.00417 560.773808,487.808329 560.773808,488.675 C560.773808,489.558338 560.91964,490.366663 561.211308,491.1 C561.502976,491.833337 561.902972,492.470831 562.411308,493.0125 C562.919644,493.554169 563.523804,493.974998 564.223808,494.275 C564.923812,494.575001 565.69047,494.725 566.523808,494.725 C567.373812,494.725 568.148804,494.562502 568.848808,494.2375 C569.548812,493.912498 570.090473,493.575002 570.473808,493.225 L570.473808,490.625 L565.498808,490.625 L565.498808,488.05 L573.398808,488.05 L573.398808,494.3 C572.56547,495.216671 571.57798,495.949997 570.436308,496.5 C569.294636,497.050003 567.990482,497.325 566.523808,497.325 Z M582.644046,497 L582.644046,490.075 L576.169046,480.325 L579.519046,480.325 L584.119046,487.475 L588.669046,480.325 L592.019046,480.325 L585.569046,490.075 L585.569046,497 L582.644046,497 Z M293.45,526 L292.225,522.8 L284.575,522.8 L283.35,526 L280.025,526 L286.575,509.325 L290.225,509.325 L296.775,526 L293.45,526 Z M288.4,512.275 L285.4,520.225 L291.4,520.225 L288.4,512.275 Z M306.920238,526.3 C305.703565,526.3 304.645242,526.133335 303.745238,525.8 C302.845234,525.466665 302.095241,525.000003 301.495238,524.4 C300.895235,523.799997 300.44524,523.079171 300.145238,522.2375 C299.845236,521.395829 299.695238,520.458338 299.695238,519.425 L299.695238,509.325 L302.645238,509.325 L302.645238,519.325 C302.645238,520.65834 303.003568,521.720829 303.720238,522.5125 C304.436908,523.304171 305.503564,523.7 306.920238,523.7 C308.320245,523.7 309.378568,523.304171 310.095238,522.5125 C310.811908,521.720829 311.170238,520.65834 311.170238,519.325 L311.170238,509.325 L314.120238,509.325 L314.120238,519.4 C314.120238,520.433338 313.970239,521.374996 313.670238,522.225 C313.370236,523.075004 312.920241,523.799997 312.320238,524.4 C311.720235,525.000003 310.970242,525.466665 310.070238,525.8 C309.170233,526.133335 308.120244,526.3 306.920238,526.3 Z M323.490476,526 L323.490476,511.9 L318.440476,511.9 L318.440476,509.325 L331.465476,509.325 L331.465476,511.9 L326.415476,511.9 L326.415476,526 L323.490476,526 Z M347.385714,526 L347.385714,518.725 L338.710714,518.725 L338.710714,526 L335.785714,526 L335.785714,509.325 L338.710714,509.325 L338.710714,516.15 L347.385714,516.15 L347.385714,509.325 L350.310714,509.325 L350.310714,526 L347.385714,526 Z M363.480952,526.3 C362.230946,526.3 361.085124,526.083335 360.043452,525.65 C359.00178,525.216664 358.101789,524.61667 357.343452,523.85 C356.585115,523.083329 355.997621,522.175005 355.580952,521.125 C355.164283,520.074995 354.955952,518.925006 354.955952,517.675 C354.955952,516.424994 355.164283,515.275005 355.580952,514.225 C355.997621,513.174995 356.585115,512.26667 357.343452,511.5 C358.101789,510.733329 359.00178,510.133335 360.043452,509.7 C361.085124,509.266664 362.230946,509.05 363.480952,509.05 C364.730958,509.05 365.87678,509.266664 366.918452,509.7 C367.960124,510.133335 368.860115,510.733329 369.618452,511.5 C370.376789,512.26667 370.964283,513.174995 371.380952,514.225 C371.797621,515.275005 372.005952,516.424994 372.005952,517.675 C372.005952,518.925006 371.797621,520.074995 371.380952,521.125 C370.964283,522.175005 370.376789,523.083329 369.618452,523.85 C368.860115,524.61667 367.960124,525.216664 366.918452,525.65 C365.87678,526.083335 364.730958,526.3 363.480952,526.3 Z M363.480952,523.7 C364.314289,523.7 365.072615,523.545835 365.755952,523.2375 C366.439289,522.929165 367.022616,522.508336 367.505952,521.975 C367.989288,521.441664 368.360117,520.80417 368.618452,520.0625 C368.876787,519.32083 369.005952,518.525004 369.005952,517.675 C369.005952,516.808329 368.876787,516.008337 368.618452,515.275 C368.360117,514.541663 367.989288,513.908336 367.505952,513.375 C367.022616,512.841664 366.439289,512.420835 365.755952,512.1125 C365.072615,511.804165 364.314289,511.65 363.480952,511.65 C362.630948,511.65 361.868455,511.804165 361.193452,512.1125 C360.518449,512.420835 359.939288,512.841664 359.455952,513.375 C358.972616,513.908336 358.601787,514.541663 358.343452,515.275 C358.085117,516.008337 357.955952,516.808329 357.955952,517.675 C357.955952,518.525004 358.085117,519.32083 358.343452,520.0625 C358.601787,520.80417 358.972616,521.441664 359.455952,521.975 C359.939288,522.508336 360.518449,522.929165 361.193452,523.2375 C361.868455,523.545835 362.630948,523.7 363.480952,523.7 Z M386.20119,526 L382.50119,519.775 L379.60119,519.775 L379.60119,526 L376.67619,526 L376.67619,509.325 L384.00119,509.325 C384.817861,509.325 385.563687,509.454165 386.23869,509.7125 C386.913693,509.970835 387.488688,510.329164 387.96369,510.7875 C388.438692,511.245836 388.805355,511.79583 389.06369,512.4375 C389.322025,513.07917 389.45119,513.783329 389.45119,514.55 C389.45119,515.300004 389.338691,515.95833 389.11369,516.525 C388.888689,517.091669 388.592858,517.579165 388.22619,517.9875 C387.859522,518.395835 387.438692,518.720832 386.96369,518.9625 C386.488688,519.204168 386.001193,519.366666 385.50119,519.45 L389.57619,526 L386.20119,526 Z M383.60119,517.2 C384.434527,517.2 385.117854,516.958336 385.65119,516.475 C386.184526,515.991664 386.45119,515.350004 386.45119,514.55 C386.45119,513.749996 386.184526,513.108336 385.65119,512.625 C385.117854,512.141664 384.434527,511.9 383.60119,511.9 L379.60119,511.9 L379.60119,517.2 L383.60119,517.2 Z M394.221428,526 L394.221428,509.325 L397.146428,509.325 L397.146428,526 L394.221428,526 Z M406.516666,526 L406.516666,511.9 L401.466666,511.9 L401.466666,509.325 L414.491666,509.325 L414.491666,511.9 L409.441666,511.9 L409.441666,526 L406.516666,526 Z M423.536904,526 L423.536904,519.075 L417.061904,509.325 L420.411904,509.325 L425.011904,516.475 L429.561904,509.325 L432.911904,509.325 L426.461904,519.075 L426.461904,526 L423.536904,526 Z"></path>
  </g>
</svg>
