<?xml version="1.0" encoding="UTF-8"?>
<svg width="27px" height="27px" viewBox="0 0 27 27" version="1.1" xmlns="http://www.w3.org/2000/svg" xmlns:xlink="http://www.w3.org/1999/xlink">
    <g stroke="none" stroke-width="1" fill="none" fill-rule="evenodd">
        <g transform="translate(-85.000000, -600.000000)" fill="#000300">
            <g transform="translate(71.000000, 126.000000)">
                <g transform="translate(0.000000, 61.000000)">
                    <g transform="translate(0.000000, 399.000000)">
                        <g transform="translate(14.000000, 14.000000)">
                            <path d="M14.1723633,0 C14.3569345,0 14.5151361,0.0659173096 14.6469727,0.197753906 C14.7788093,0.329590503 14.8447266,0.492186533 14.8447266,0.685546875 L14.8447266,3.375 C14.8447266,3.56836034 14.7788093,3.73095637 14.6469727,3.86279297 C14.5151361,3.99462957 14.3569345,4.06054688 14.1723633,4.06054688 L9.45263672,4.06054688 L9.45263672,8.2265625 C9.8393574,8.3583991 10.160155,8.59789865 10.4150391,8.94506836 C10.6699231,9.29223806 10.7973633,9.68554468 10.7973633,10.125 C10.7973633,10.6875028 10.5996114,11.1665019 10.2041016,11.5620117 C9.80859177,11.9575215 9.33398714,12.1552734 8.78027344,12.1552734 C8.21777063,12.1552734 7.73877151,11.9575215 7.34326172,11.5620117 C6.94775193,11.1665019 6.75,10.6875028 6.75,10.125 C6.75,9.68554468 6.87744013,9.29223806 7.13232422,8.94506836 C7.38720831,8.59789865 7.70800588,8.3583991 8.09472656,8.2265625 L8.09472656,0.685546875 C8.09472656,0.492186533 8.16064387,0.329590503 8.29248047,0.197753906 C8.42431707,0.0659173096 8.5869131,0 8.78027344,0 L14.1723633,0 Z M8.78027344,10.8105469 C8.96484467,10.8105469 9.12304622,10.7446296 9.25488281,10.612793 C9.38671941,10.4809564 9.45263672,10.3183603 9.45263672,10.125 C9.45263672,9.94042876 9.38671941,9.78222722 9.25488281,9.65039062 C9.12304622,9.51855403 8.96484467,9.45263672 8.78027344,9.45263672 C8.5869131,9.45263672 8.42431707,9.51855403 8.29248047,9.65039062 C8.16064387,9.78222722 8.09472656,9.94042876 8.09472656,10.125 C8.09472656,10.3183603 8.16064387,10.4809564 8.29248047,10.612793 C8.42431707,10.7446296 8.5869131,10.8105469 8.78027344,10.8105469 Z M13.5,2.70263672 L13.5,1.35791016 L9.45263672,1.35791016 L9.45263672,2.70263672 L13.5,2.70263672 Z M25.7739258,9.38671875 C25.9760752,9.91406514 26.154052,10.4941375 26.3078613,11.1269531 C26.4616707,11.7597688 26.5891108,12.4453088 26.6901855,13.1835938 C26.7912603,13.9218787 26.8681638,14.7128864 26.9208984,15.5566406 C26.9736331,16.4003948 27,17.2924758 27,18.2329102 C27,18.4174814 26.9340827,18.5756829 26.8022461,18.7075195 C26.6704095,18.8393561 26.512208,18.9052734 26.3276367,18.9052734 L16.2026367,18.9052734 L16.2026367,26.3276367 C16.2026367,26.512208 16.1367194,26.6704095 16.0048828,26.8022461 C15.8730462,26.9340827 15.7148447,27 15.5302734,27 L11.4697266,27 C11.2851553,27 11.1269538,26.9340827 10.9951172,26.8022461 C10.8632806,26.6704095 10.7973633,26.512208 10.7973633,26.3276367 L10.7973633,18.9052734 L4.04736328,18.9052734 L4.04736328,19.5776367 C4.04736328,19.762208 3.98144597,19.9204095 3.84960938,20.0522461 C3.71777278,20.1840827 3.55957124,20.25 3.375,20.25 L0.672363281,20.25 C0.487792046,20.25 0.329590503,20.1840827 0.197753906,20.0522461 C0.0659173096,19.9204095 0,19.762208 0,19.5776367 L0,4.73291016 C0,4.54833892 0.0659173096,4.39013738 0.197753906,4.25830078 C0.329590503,4.12646418 0.487792046,4.06054688 0.672363281,4.06054688 L3.375,4.06054688 C3.55957124,4.06054688 3.71777278,4.12646418 3.84960938,4.25830078 C3.98144597,4.39013738 4.04736328,4.54833892 4.04736328,4.73291016 L4.04736328,5.40527344 L6.07763672,5.40527344 C6.26220795,5.40527344 6.4204095,5.47119075 6.55224609,5.60302734 C6.68408269,5.73486394 6.75,5.89306548 6.75,6.07763672 C6.75,6.26220795 6.68408269,6.4204095 6.55224609,6.55224609 C6.4204095,6.68408269 6.26220795,6.75 6.07763672,6.75 L4.04736328,6.75 L4.04736328,17.5605469 L25.6420898,17.5605469 C25.6245116,16.2861264 25.5432136,15.0073306 25.3981934,13.7241211 C25.2531731,12.4409116 25.0048846,11.2829641 24.6533203,10.2502441 C24.3017561,9.21752413 23.8227569,8.37597981 23.2163086,7.72558594 C22.6098602,7.07519206 21.8364305,6.75 20.8959961,6.75 L11.4697266,6.75 C11.2851553,6.75 11.1269538,6.68408269 10.9951172,6.55224609 C10.8632806,6.4204095 10.7973633,6.26220795 10.7973633,6.07763672 C10.7973633,5.89306548 10.8632806,5.73486394 10.9951172,5.60302734 C11.1269538,5.47119075 11.2851553,5.40527344 11.4697266,5.40527344 L20.8959961,5.40527344 C21.467288,5.40527344 22.0056127,5.49975491 22.5109863,5.6887207 C23.0163599,5.87768649 23.4799784,6.15673644 23.9018555,6.52587891 C24.279787,6.85107584 24.6247543,7.25317143 24.9367676,7.73217773 C25.2487809,8.21118404 25.5278308,8.76269219 25.7739258,9.38671875 Z M2.70263672,18.9052734 L2.70263672,5.40527344 L1.34472656,5.40527344 L1.34472656,18.9052734 L2.70263672,18.9052734 Z M14.8447266,25.6552734 L14.8447266,18.9052734 L12.1552734,18.9052734 L12.1552734,25.6552734 L14.8447266,25.6552734 Z" id="icon_mail-30px-copy"></path>
                        </g>
                    </g>
                </g>
            </g>
        </g>
    </g>
</svg>
